<svg width="512px" height="116px" viewBox="0 0 512 116" version="1.1" xmlns="http://www.w3.org/2000/svg" xmlns:xlink="http://www.w3.org/1999/xlink">
    <g stroke="none" stroke-width="1" fill="none" fill-rule="evenodd">
            <g id="Group-2" transform="translate(10.130017, 18.939592)">
                    <g id="XMLID_21_" transform="translate(135.500000, 44.393131) scale(-1, 1) rotate(-180.000000) translate(-135.500000, -44.393131) translate(0.000000, 0.238292)">
                            <path d="M0.468875071,54.1672388 C0.468875071,72.9501493 16.306433,88.2400746 35.1460938,88.2400746 C45.5655399,88.2400746 52.982883,84.1692537 58.5703109,78.8518657 L51.9865235,72.2879104 C47.9880611,76.0276119 42.5699491,78.9362687 35.1460938,78.9362687 C21.3924251,78.9362687 10.6408592,67.8859701 10.6408592,54.1672388 C10.6408592,40.455 21.3924251,29.398209 35.1460938,29.398209 C44.0677445,29.398209 49.1472244,32.9691045 52.4033013,36.2153731 C55.0732843,38.8773134 56.8185415,42.6949254 57.4892934,47.934403 L35.1460938,47.934403 L35.1460938,57.2447015 L66.5737479,57.2447015 C66.9058677,55.5826119 67.0751837,53.589403 67.0751837,51.4273881 C67.0751837,44.4479104 65.1606105,35.8063433 58.9870888,29.6514179 C52.982883,23.4185821 45.318078,20.094403 35.1460938,20.094403 C16.306433,20.094403 0.468875071,35.3908209 0.468875071,54.1672388 Z" id="XMLID_165_" fill="#4285F4" fill-rule="nonzero"></path>
                            <path d="M92.4725834,63.9774627 C80.301368,63.9774627 70.3833578,54.7515672 70.3833578,42.0391791 C70.3833578,29.4047015 80.301368,20.1008955 92.4725834,20.1008955 C104.643799,20.1008955 114.561809,29.411194 114.561809,42.0391791 C114.561809,54.7515672 104.643799,63.9774627 92.4725834,63.9774627 Z M92.4725834,28.7359701 C85.8041379,28.7359701 80.0539062,34.2221642 80.0539062,42.0326866 C80.0539062,49.9276119 85.8041379,55.329403 92.4725834,55.329403 C99.1410288,55.329403 104.891261,49.9276119 104.891261,42.0326866 C104.891261,34.2221642 99.1410288,28.7359701 92.4725834,28.7359701 Z" id="XMLID_79_" fill="#EA4335" fill-rule="nonzero"></path>
                            <path d="M140.662521,63.9774627 C128.491306,63.9774627 118.573296,54.7515672 118.573296,42.0391791 C118.573296,29.4047015 128.491306,20.1008955 140.662521,20.1008955 C152.833737,20.1008955 162.751747,29.411194 162.751747,42.0391791 C162.751747,54.7515672 152.833737,63.9774627 140.662521,63.9774627 Z M140.662521,28.7359701 C133.994076,28.7359701 128.243844,34.2221642 128.243844,42.0326866 C128.243844,49.9276119 133.994076,55.329403 140.662521,55.329403 C147.330967,55.329403 153.081198,49.9276119 153.081198,42.0326866 C153.081198,34.2221642 147.330967,28.7359701 140.662521,28.7359701 Z" id="XMLID_68_" fill="#FBBC05" fill-rule="nonzero"></path>
                            <path d="M199.812414,62.6464925 L199.812414,59.075597 L199.480294,59.075597 C197.311747,61.6531343 193.143968,63.9774627 187.895172,63.9774627 C176.889633,63.9774627 166.802306,54.3360448 166.802306,41.9547761 C166.802306,29.6514179 176.889633,20.094403 187.895172,20.094403 C193.143968,20.094403 197.311747,22.4187313 199.480294,25.0806716 L199.812414,25.0806716 L199.812414,21.9252985 C199.812414,13.5304478 195.312516,9.04410448 188.057976,9.04410448 C182.138428,9.04410448 178.472086,13.2837313 176.974291,16.8546269 L168.554076,13.3616418 C170.970085,7.54432836 177.391068,0.396044776 188.057976,0.396044776 C199.395636,0.396044776 208.981526,7.04440299 208.981526,23.2497761 L208.981526,62.6464925 L199.812414,62.6464925 Z M188.728728,28.7359701 C182.060283,28.7359701 176.472855,34.3065672 176.472855,41.9482836 C176.472855,49.674403 182.060283,55.329403 188.728728,55.329403 C195.312516,55.329403 200.483166,49.6808955 200.483166,41.9482836 C200.476653,34.3065672 195.312516,28.7359701 188.728728,28.7359701 Z" id="XMLID_65_" fill="#4285F4" fill-rule="nonzero"></path>
                            <polygon id="XMLID_64_" fill="#34A853" fill-rule="nonzero" points="225.32052 21.4253731 215.649972 21.4253731 215.649972 85.9157463 225.32052 85.9157463"></polygon>
                            <path d="M251.831498,28.7359701 C246.914822,28.7359701 243.411283,30.9823881 241.16459,35.3843284 L270.593013,47.5188806 L269.590141,50.0120149 C267.753714,54.9138806 262.172798,63.9709701 250.75048,63.9709701 C239.412821,63.9709701 229.996246,55.076194 229.996246,42.0326866 C229.996246,29.7358209 239.334675,20.094403 251.83801,20.094403 C261.925336,20.094403 267.760226,26.2428358 270.176235,29.8202239 L262.674234,34.8064925 C260.167055,31.151194 256.748174,28.7359701 251.831498,28.7359701 Z M251.076088,55.498209 C254.911747,55.498209 258.161311,53.589403 259.242329,50.8430597 L239.569112,42.7014179 C239.321651,51.1806716 246.159412,55.498209 251.076088,55.498209 Z" id="XMLID_51_" fill="#EA4335" fill-rule="nonzero"></path>
                        </g>
                    </g>
                </g>
       </svg>